STARTFONT 2.1
FONT -FontForge-Frutiger LT 55 Roman-Book-R-Normal--18-170-75-75-P-97-ISO8859-1
SIZE 17 75 75
FONTBOUNDINGBOX 21 23 -3 -5
COMMENT "Generated by fontforge, http://fontforge.sourceforge.net"
COMMENT "Part of the digitally encoded machine readable outline data for producing the Typefaces provided is copyrighted (c) 1988, 1990, 1994, 2001, 2002, 2003, Linotype Library GmbH, www.linotype.com. All rights reserved. This software is the property of Linotype Library GmbH, and may not be reproduced, used, displayed, modified, disclosed or transferred Library GmbH. Copyright (c) 1988, 1990, 1994, 2001, 2002, 2003, Adobe Systems Incorporated. All rights reserved."
STARTPROPERTIES 40
FOUNDRY "FontForge"
FAMILY_NAME "Frutiger LT 55 Roman"
WEIGHT_NAME "Book"
SLANT "R"
SETWIDTH_NAME "Normal"
ADD_STYLE_NAME ""
PIXEL_SIZE 18
POINT_SIZE 170
RESOLUTION_X 75
RESOLUTION_Y 75
SPACING "P"
AVERAGE_WIDTH 97
CHARSET_REGISTRY "ISO8859"
CHARSET_ENCODING "1"
FONTNAME_REGISTRY ""
CHARSET_COLLECTIONS "ISOLatin1Encoding"
FONT_NAME "FrutigerLT-Roman"
FACE_NAME "Frutiger LT 55 Roman"
COPYRIGHT "Part of the digitally encoded machine readable outline data for producing the Typefaces provided is copyrighted (c) 1988, 1990, 1994, 2001, 2002, 2003, Linotype Library GmbH, www.linotype.com. All rights reserved. This software is the property of Linotype Library GmbH, and may not be reproduced, used, displayed, modified, disclosed or transferred Library GmbH. Copyright (c) 1988, 1990, 1994, 2001, 2002, 2003, Adobe Systems Incorporated. All rights reserved."
FONT_VERSION "6.04"
FONT_ASCENT 14
FONT_DESCENT 4
UNDERLINE_POSITION -2
UNDERLINE_THICKNESS 1
X_HEIGHT 8
CAP_HEIGHT 12
RAW_ASCENT 800
RAW_DESCENT 200
NORM_SPACE 5
RELATIVE_WEIGHT 40
RELATIVE_SETWIDTH 50
SUPERSCRIPT_X 0
SUPERSCRIPT_Y 5
SUPERSCRIPT_SIZE 3
SUBSCRIPT_X 0
SUBSCRIPT_Y 5
SUBSCRIPT_SIZE 3
FIGURE_WIDTH 10
AVG_LOWERCASE_WIDTH 96
AVG_UPPERCASE_WIDTH 116
ENDPROPERTIES
CHARS 232
STARTCHAR space
ENCODING 32
SWIDTH 278 0
DWIDTH 5 0
BBX 1 1 0 0
BITMAP
00
ENDCHAR
STARTCHAR exclam
ENCODING 33
SWIDTH 389 0
DWIDTH 7 0
BBX 2 13 3 0
BITMAP
C0
C0
C0
C0
C0
C0
C0
C0
C0
00
00
C0
C0
ENDCHAR
STARTCHAR quotedbl
ENCODING 34
SWIDTH 556 0
DWIDTH 10 0
BBX 4 4 3 9
BITMAP
90
90
90
90
ENDCHAR
STARTCHAR numbersign
ENCODING 35
SWIDTH 556 0
DWIDTH 10 0
BBX 9 13 1 0
BITMAP
1300
1200
3200
3200
FF80
2200
2600
2600
FF00
6400
6400
6400
4C00
ENDCHAR
STARTCHAR dollar
ENCODING 36
SWIDTH 556 0
DWIDTH 10 0
BBX 7 17 2 -2
BITMAP
10
10
3C
FC
D0
D0
D0
F0
3C
1E
16
16
16
DC
F8
10
10
ENDCHAR
STARTCHAR percent
ENCODING 37
SWIDTH 1000 0
DWIDTH 18 0
BBX 14 13 2 0
BITMAP
7060
D840
88C0
8880
8900
DB00
7238
066C
0444
0844
1844
106C
3038
ENDCHAR
STARTCHAR ampersand
ENCODING 38
SWIDTH 722 0
DWIDTH 13 0
BBX 11 13 2 0
BITMAP
1E00
3700
2300
2300
3600
1C00
38C0
6CC0
C6C0
C380
C180
77C0
3CE0
ENDCHAR
STARTCHAR quotesingle
ENCODING 39
SWIDTH 278 0
DWIDTH 5 0
BBX 1 4 2 9
BITMAP
80
80
80
80
ENDCHAR
STARTCHAR parenleft
ENCODING 40
SWIDTH 333 0
DWIDTH 6 0
BBX 5 17 1 -3
BITMAP
18
30
20
60
60
C0
C0
C0
C0
C0
C0
C0
60
60
20
30
18
ENDCHAR
STARTCHAR parenright
ENCODING 41
SWIDTH 333 0
DWIDTH 6 0
BBX 5 17 0 -3
BITMAP
C0
60
20
30
30
18
18
18
18
18
18
18
30
30
20
60
C0
ENDCHAR
STARTCHAR asterisk
ENCODING 42
SWIDTH 556 0
DWIDTH 10 0
BBX 8 7 1 6
BITMAP
18
18
DB
7E
3C
24
66
ENDCHAR
STARTCHAR plus
ENCODING 43
SWIDTH 600 0
DWIDTH 11 0
BBX 9 9 1 0
BITMAP
0800
0800
0800
0800
FF80
0800
0800
0800
0800
ENDCHAR
STARTCHAR comma
ENCODING 44
SWIDTH 278 0
DWIDTH 5 0
BBX 3 4 1 -2
BITMAP
60
40
C0
C0
ENDCHAR
STARTCHAR hyphen
ENCODING 45
SWIDTH 333 0
DWIDTH 6 0
BBX 4 1 1 5
BITMAP
F0
ENDCHAR
STARTCHAR period
ENCODING 46
SWIDTH 278 0
DWIDTH 5 0
BBX 2 2 2 0
BITMAP
C0
C0
ENDCHAR
STARTCHAR slash
ENCODING 47
SWIDTH 278 0
DWIDTH 5 0
BBX 6 13 0 0
BITMAP
0C
08
18
10
10
30
20
20
60
40
40
C0
80
ENDCHAR
STARTCHAR zero
ENCODING 48
SWIDTH 556 0
DWIDTH 10 0
BBX 9 13 1 0
BITMAP
3C00
7600
6300
C300
C300
C180
C180
C180
C300
C300
6300
7600
3C00
ENDCHAR
STARTCHAR one
ENCODING 49
SWIDTH 556 0
DWIDTH 10 0
BBX 5 13 2 0
BITMAP
18
78
F8
98
18
18
18
18
18
18
18
18
18
ENDCHAR
STARTCHAR two
ENCODING 50
SWIDTH 556 0
DWIDTH 10 0
BBX 8 13 1 0
BITMAP
7C
6E
03
03
03
07
06
0C
18
30
60
C0
FF
ENDCHAR
STARTCHAR three
ENCODING 51
SWIDTH 556 0
DWIDTH 10 0
BBX 8 13 1 0
BITMAP
7C
6E
03
03
03
1E
3C
06
03
03
03
DE
FC
ENDCHAR
STARTCHAR four
ENCODING 52
SWIDTH 556 0
DWIDTH 10 0
BBX 10 13 0 0
BITMAP
0700
0F00
0B00
1B00
1300
3300
6300
6300
C300
FFC0
0300
0300
0300
ENDCHAR
STARTCHAR five
ENCODING 53
SWIDTH 556 0
DWIDTH 10 0
BBX 8 13 1 0
BITMAP
7F
40
40
40
40
7C
5E
07
03
03
03
CE
FC
ENDCHAR
STARTCHAR six
ENCODING 54
SWIDTH 556 0
DWIDTH 10 0
BBX 8 13 1 0
BITMAP
1F
3B
60
E0
C0
DE
F7
E3
C3
C3
63
77
3C
ENDCHAR
STARTCHAR seven
ENCODING 55
SWIDTH 556 0
DWIDTH 10 0
BBX 8 13 1 0
BITMAP
FF
03
06
06
04
0C
0C
18
18
30
30
30
60
ENDCHAR
STARTCHAR eight
ENCODING 56
SWIDTH 556 0
DWIDTH 10 0
BBX 9 13 1 0
BITMAP
3E00
7700
C300
C300
6300
7E00
3E00
6700
C180
C180
C380
7700
3E00
ENDCHAR
STARTCHAR nine
ENCODING 57
SWIDTH 556 0
DWIDTH 10 0
BBX 8 13 1 0
BITMAP
3C
EE
C6
C3
C3
C7
EF
7B
03
07
06
DC
F8
ENDCHAR
STARTCHAR colon
ENCODING 58
SWIDTH 278 0
DWIDTH 5 0
BBX 2 9 2 0
BITMAP
C0
C0
00
00
00
00
00
C0
C0
ENDCHAR
STARTCHAR semicolon
ENCODING 59
SWIDTH 278 0
DWIDTH 5 0
BBX 3 11 1 -2
BITMAP
60
60
00
00
00
00
00
60
40
C0
C0
ENDCHAR
STARTCHAR less
ENCODING 60
SWIDTH 600 0
DWIDTH 11 0
BBX 9 9 1 0
BITMAP
0080
0380
1E00
7800
C000
F000
1C00
0700
0180
ENDCHAR
STARTCHAR equal
ENCODING 61
SWIDTH 600 0
DWIDTH 11 0
BBX 9 5 1 2
BITMAP
FF80
0000
0000
0000
FF80
ENDCHAR
STARTCHAR greater
ENCODING 62
SWIDTH 600 0
DWIDTH 11 0
BBX 9 9 1 0
BITMAP
8000
E000
3C00
0F00
0180
0780
1C00
7000
C000
ENDCHAR
STARTCHAR question
ENCODING 63
SWIDTH 500 0
DWIDTH 9 0
BBX 7 13 2 0
BITMAP
F8
FC
0E
06
0E
0C
18
30
30
00
00
30
30
ENDCHAR
STARTCHAR at
ENCODING 64
SWIDTH 800 0
DWIDTH 14 0
BBX 13 13 1 0
BITMAP
0F80
38E0
6030
4750
CDD8
D8D8
9090
D090
D9B0
5FE0
6030
38E0
0F80
ENDCHAR
STARTCHAR A
ENCODING 65
SWIDTH 722 0
DWIDTH 13 0
BBX 13 13 0 0
BITMAP
0600
0700
0500
0D80
0980
1880
18C0
10C0
3060
3FE0
6030
6030
C038
ENDCHAR
STARTCHAR B
ENCODING 66
SWIDTH 611 0
DWIDTH 11 0
BBX 8 13 2 0
BITMAP
FC
CF
C3
C3
C7
FC
CE
C3
C3
C3
C3
CF
FC
ENDCHAR
STARTCHAR C
ENCODING 67
SWIDTH 611 0
DWIDTH 11 0
BBX 9 13 1 0
BITMAP
0F80
3F80
7000
6000
C000
C000
C000
C000
C000
6000
7000
3F80
0F80
ENDCHAR
STARTCHAR D
ENCODING 68
SWIDTH 722 0
DWIDTH 13 0
BBX 11 13 2 0
BITMAP
FE00
FF00
C180
C0C0
C0C0
C0C0
C0E0
C0C0
C0C0
C0C0
C180
FF00
FE00
ENDCHAR
STARTCHAR E
ENCODING 69
SWIDTH 556 0
DWIDTH 10 0
BBX 7 13 2 0
BITMAP
FE
FE
C0
C0
C0
FE
FE
C0
C0
C0
C0
FE
FE
ENDCHAR
STARTCHAR F
ENCODING 70
SWIDTH 500 0
DWIDTH 9 0
BBX 7 13 2 0
BITMAP
FE
FE
C0
C0
C0
FC
FC
C0
C0
C0
C0
C0
C0
ENDCHAR
STARTCHAR G
ENCODING 71
SWIDTH 722 0
DWIDTH 13 0
BBX 11 13 1 0
BITMAP
0FC0
1FE0
3000
6000
6000
C000
C3E0
C060
6060
6060
3060
1FE0
0FE0
ENDCHAR
STARTCHAR H
ENCODING 72
SWIDTH 722 0
DWIDTH 13 0
BBX 10 13 2 0
BITMAP
C0C0
C0C0
C0C0
C0C0
C0C0
FFC0
FFC0
C0C0
C0C0
C0C0
C0C0
C0C0
C0C0
ENDCHAR
STARTCHAR I
ENCODING 73
SWIDTH 278 0
DWIDTH 5 0
BBX 2 13 2 0
BITMAP
C0
C0
C0
C0
C0
C0
C0
C0
C0
C0
C0
C0
C0
ENDCHAR
STARTCHAR J
ENCODING 74
SWIDTH 389 0
DWIDTH 7 0
BBX 5 13 1 0
BITMAP
18
18
18
18
18
18
18
18
18
18
18
F8
F0
ENDCHAR
STARTCHAR K
ENCODING 75
SWIDTH 667 0
DWIDTH 12 0
BBX 10 13 2 0
BITMAP
C180
C300
C600
CC00
D800
F000
F000
D800
CC00
CE00
C700
C380
C1C0
ENDCHAR
STARTCHAR L
ENCODING 76
SWIDTH 500 0
DWIDTH 9 0
BBX 7 13 2 0
BITMAP
C0
C0
C0
C0
C0
C0
C0
C0
C0
C0
C0
FE
FE
ENDCHAR
STARTCHAR M
ENCODING 77
SWIDTH 944 0
DWIDTH 17 0
BBX 14 13 2 0
BITMAP
E01C
F03C
F03C
D02C
D86C
D84C
C84C
CCCC
CC8C
C68C
C70C
C70C
C30C
ENDCHAR
STARTCHAR N
ENCODING 78
SWIDTH 722 0
DWIDTH 13 0
BBX 10 13 2 0
BITMAP
E0C0
E0C0
F0C0
D0C0
D8C0
C8C0
CCC0
C4C0
C6C0
C2C0
C3C0
C1C0
C1C0
ENDCHAR
STARTCHAR O
ENCODING 79
SWIDTH 778 0
DWIDTH 14 0
BBX 12 13 1 0
BITMAP
1F80
3FC0
7060
6070
C030
C030
C030
C030
C030
6070
7060
3FC0
1F80
ENDCHAR
STARTCHAR P
ENCODING 80
SWIDTH 556 0
DWIDTH 10 0
BBX 8 13 2 0
BITMAP
FC
FE
C3
C3
C3
C3
FE
FC
C0
C0
C0
C0
C0
ENDCHAR
STARTCHAR Q
ENCODING 81
SWIDTH 778 0
DWIDTH 14 0
BBX 12 15 1 -2
BITMAP
1F80
3FC0
7060
6070
C030
C030
C030
C030
C030
6070
7060
3FC0
1F80
00C0
0070
ENDCHAR
STARTCHAR R
ENCODING 82
SWIDTH 611 0
DWIDTH 11 0
BBX 9 13 2 0
BITMAP
FC00
FE00
C300
C300
C300
C700
FC00
FC00
C600
C600
C300
C300
C180
ENDCHAR
STARTCHAR S
ENCODING 83
SWIDTH 500 0
DWIDTH 9 0
BBX 7 13 1 0
BITMAP
3E
7E
C0
C0
E0
70
3C
0E
06
06
06
FE
F8
ENDCHAR
STARTCHAR T
ENCODING 84
SWIDTH 556 0
DWIDTH 10 0
BBX 10 13 0 0
BITMAP
FFC0
FFC0
0C00
0C00
0C00
0C00
0C00
0C00
0C00
0C00
0C00
0C00
0C00
ENDCHAR
STARTCHAR U
ENCODING 85
SWIDTH 722 0
DWIDTH 13 0
BBX 10 13 2 0
BITMAP
C0C0
C0C0
C0C0
C0C0
C0C0
C0C0
C0C0
C0C0
C0C0
C0C0
6180
7F80
1E00
ENDCHAR
STARTCHAR V
ENCODING 86
SWIDTH 667 0
DWIDTH 12 0
BBX 12 13 0 0
BITMAP
C030
6030
6060
2060
3040
30C0
10C0
1880
1980
0D80
0F00
0F00
0600
ENDCHAR
STARTCHAR W
ENCODING 87
SWIDTH 1000 0
DWIDTH 18 0
BBX 18 13 0 0
BITMAP
C0C0C0
60E0C0
61E180
61A180
212180
313100
333300
331300
1B1200
1A1A00
1E1E00
0E1E00
0E0C00
ENDCHAR
STARTCHAR X
ENCODING 88
SWIDTH 667 0
DWIDTH 12 0
BBX 12 13 0 0
BITMAP
6060
30C0
38C0
1980
0F00
0700
0600
0F00
1980
1980
30C0
6060
E070
ENDCHAR
STARTCHAR Y
ENCODING 89
SWIDTH 667 0
DWIDTH 12 0
BBX 12 13 0 0
BITMAP
E070
6060
30C0
38C0
1980
0F00
0F00
0600
0600
0600
0600
0600
0600
ENDCHAR
STARTCHAR Z
ENCODING 90
SWIDTH 556 0
DWIDTH 10 0
BBX 9 13 1 0
BITMAP
FF80
FF80
0300
0600
0600
0C00
1800
1800
3000
6000
6000
FF80
FF80
ENDCHAR
STARTCHAR bracketleft
ENCODING 91
SWIDTH 333 0
DWIDTH 6 0
BBX 3 17 2 -3
BITMAP
E0
80
80
80
80
80
80
80
80
80
80
80
80
80
80
80
E0
ENDCHAR
STARTCHAR backslash
ENCODING 92
SWIDTH 278 0
DWIDTH 5 0
BBX 5 13 0 0
BITMAP
80
80
40
40
40
20
20
20
10
10
10
08
08
ENDCHAR
STARTCHAR bracketright
ENCODING 93
SWIDTH 333 0
DWIDTH 6 0
BBX 3 17 1 -3
BITMAP
E0
20
20
20
20
20
20
20
20
20
20
20
20
20
20
20
E0
ENDCHAR
STARTCHAR asciicircum
ENCODING 94
SWIDTH 600 0
DWIDTH 11 0
BBX 9 7 1 6
BITMAP
0C00
1C00
1600
3200
2300
6100
C180
ENDCHAR
STARTCHAR underscore
ENCODING 95
SWIDTH 500 0
DWIDTH 9 0
BBX 9 1 0 -2
BITMAP
FF80
ENDCHAR
STARTCHAR grave
ENCODING 96
SWIDTH 278 0
DWIDTH 5 0
BBX 3 3 0 10
BITMAP
C0
60
20
ENDCHAR
STARTCHAR a
ENCODING 97
SWIDTH 556 0
DWIDTH 10 0
BBX 8 9 1 0
BITMAP
3E
67
03
03
7F
C3
C3
E7
7B
ENDCHAR
STARTCHAR b
ENCODING 98
SWIDTH 611 0
DWIDTH 12 0
BBX 9 14 2 0
BITMAP
C000
C000
C000
C000
C000
DE00
F700
E180
C180
C180
C180
E380
F700
DE00
ENDCHAR
STARTCHAR c
ENCODING 99
SWIDTH 444 0
DWIDTH 8 0
BBX 7 9 1 0
BITMAP
3E
72
E0
C0
C0
C0
E0
72
3E
ENDCHAR
STARTCHAR d
ENCODING 100
SWIDTH 611 0
DWIDTH 11 0
BBX 9 14 1 0
BITMAP
0180
0180
0180
0180
0180
3D80
7780
C380
C180
C180
C180
C380
7780
3D80
ENDCHAR
STARTCHAR e
ENCODING 101
SWIDTH 556 0
DWIDTH 10 0
BBX 9 9 1 0
BITMAP
3E00
7700
C300
C100
FF80
C000
E000
7300
3E00
ENDCHAR
STARTCHAR f
ENCODING 102
SWIDTH 389 0
DWIDTH 7 0
BBX 7 14 1 0
BITMAP
1E
38
30
30
30
FC
30
30
30
30
30
30
30
30
ENDCHAR
STARTCHAR g
ENCODING 103
SWIDTH 611 0
DWIDTH 11 0
BBX 9 13 1 -4
BITMAP
3D80
7780
E380
C180
C180
C180
C380
7780
3D80
0180
0380
6700
7E00
ENDCHAR
STARTCHAR h
ENCODING 104
SWIDTH 611 0
DWIDTH 11 0
BBX 8 14 2 0
BITMAP
C0
C0
C0
C0
C0
DE
F7
C3
C3
C3
C3
C3
C3
C3
ENDCHAR
STARTCHAR i
ENCODING 105
SWIDTH 278 0
DWIDTH 5 0
BBX 2 13 2 0
BITMAP
C0
C0
00
00
C0
C0
C0
C0
C0
C0
C0
C0
C0
ENDCHAR
STARTCHAR j
ENCODING 106
SWIDTH 278 0
DWIDTH 5 0
BBX 4 17 0 -4
BITMAP
30
30
00
00
30
30
30
30
30
30
30
30
30
30
30
30
E0
ENDCHAR
STARTCHAR k
ENCODING 107
SWIDTH 556 0
DWIDTH 10 0
BBX 8 14 2 0
BITMAP
C0
C0
C0
C0
C0
C7
CC
D8
F0
F0
D8
CC
C6
C7
ENDCHAR
STARTCHAR l
ENCODING 108
SWIDTH 278 0
DWIDTH 5 0
BBX 2 14 2 0
BITMAP
C0
C0
C0
C0
C0
C0
C0
C0
C0
C0
C0
C0
C0
C0
ENDCHAR
STARTCHAR m
ENCODING 109
SWIDTH 889 0
DWIDTH 17 0
BBX 14 9 2 0
BITMAP
DE78
F7DC
C30C
C30C
C30C
C30C
C30C
C30C
C30C
ENDCHAR
STARTCHAR n
ENCODING 110
SWIDTH 611 0
DWIDTH 11 0
BBX 8 9 2 0
BITMAP
DE
F7
C3
C3
C3
C3
C3
C3
C3
ENDCHAR
STARTCHAR o
ENCODING 111
SWIDTH 611 0
DWIDTH 11 0
BBX 9 9 1 0
BITMAP
3E00
7300
E180
C180
C180
C180
E180
7300
3E00
ENDCHAR
STARTCHAR p
ENCODING 112
SWIDTH 611 0
DWIDTH 11 0
BBX 9 13 1 -4
BITMAP
DE00
F700
E180
C180
C180
C180
E380
F700
DE00
C000
C000
C000
C000
ENDCHAR
STARTCHAR q
ENCODING 113
SWIDTH 611 0
DWIDTH 11 0
BBX 9 13 1 -4
BITMAP
3D80
7780
C380
C180
C180
C180
C380
7780
3D80
0180
0180
0180
0180
ENDCHAR
STARTCHAR r
ENCODING 114
SWIDTH 389 0
DWIDTH 7 0
BBX 5 9 1 0
BITMAP
D8
F8
E0
C0
C0
C0
C0
C0
C0
ENDCHAR
STARTCHAR s
ENCODING 115
SWIDTH 389 0
DWIDTH 7 0
BBX 6 9 1 0
BITMAP
78
C8
C0
E0
78
18
0C
98
F0
ENDCHAR
STARTCHAR t
ENCODING 116
SWIDTH 389 0
DWIDTH 7 0
BBX 6 12 0 0
BITMAP
30
30
30
FC
30
30
30
30
30
30
3C
1C
ENDCHAR
STARTCHAR u
ENCODING 117
SWIDTH 611 0
DWIDTH 11 0
BBX 8 9 2 0
BITMAP
C3
C3
C3
C3
C3
C3
C3
EF
7B
ENDCHAR
STARTCHAR v
ENCODING 118
SWIDTH 500 0
DWIDTH 9 0
BBX 9 9 0 0
BITMAP
C180
6300
6300
6300
3600
3600
1400
1C00
1C00
ENDCHAR
STARTCHAR w
ENCODING 119
SWIDTH 833 0
DWIDTH 15 0
BBX 15 9 0 0
BITMAP
C386
638C
628C
62CC
2648
3458
3478
1C70
1830
ENDCHAR
STARTCHAR x
ENCODING 120
SWIDTH 500 0
DWIDTH 9 0
BBX 9 9 0 0
BITMAP
6300
3200
3600
1C00
1C00
1400
3600
6300
E380
ENDCHAR
STARTCHAR y
ENCODING 121
SWIDTH 500 0
DWIDTH 9 0
BBX 8 13 1 -4
BITMAP
C3
C3
C2
66
66
24
3C
3C
18
18
10
B0
E0
ENDCHAR
STARTCHAR z
ENCODING 122
SWIDTH 500 0
DWIDTH 9 0
BBX 7 9 1 0
BITMAP
FE
06
0C
18
30
30
60
C0
FE
ENDCHAR
STARTCHAR braceleft
ENCODING 123
SWIDTH 333 0
DWIDTH 6 0
BBX 5 17 0 -3
BITMAP
18
30
20
20
20
20
20
60
C0
60
20
20
20
20
20
30
18
ENDCHAR
STARTCHAR bar
ENCODING 124
SWIDTH 222 0
DWIDTH 4 0
BBX 1 19 1 -5
BITMAP
80
80
80
80
80
80
80
80
80
80
80
80
80
80
80
80
80
80
80
ENDCHAR
STARTCHAR braceright
ENCODING 125
SWIDTH 333 0
DWIDTH 6 0
BBX 5 17 1 -3
BITMAP
C0
60
20
20
20
20
20
30
18
30
20
20
20
20
20
60
C0
ENDCHAR
STARTCHAR asciitilde
ENCODING 126
SWIDTH 600 0
DWIDTH 11 0
BBX 8 3 1 3
BITMAP
71
FF
86
ENDCHAR
STARTCHAR Zcaron
ENCODING 142
SWIDTH 556 0
DWIDTH 10 0
BBX 9 17 1 0
BITMAP
2100
1200
0C00
0000
FF80
FF80
0300
0600
0600
0C00
1800
1800
3000
6000
6000
FF80
FF80
ENDCHAR
STARTCHAR zcaron
ENCODING 158
SWIDTH 500 0
DWIDTH 9 0
BBX 7 13 1 0
BITMAP
42
24
18
00
FE
06
0C
18
30
30
60
C0
FE
ENDCHAR
STARTCHAR nonbreakingspace
ENCODING 160
SWIDTH 278 0
DWIDTH 5 0
BBX 1 1 0 0
BITMAP
00
ENDCHAR
STARTCHAR exclamdown
ENCODING 161
SWIDTH 389 0
DWIDTH 7 0
BBX 2 12 3 -3
BITMAP
C0
C0
00
C0
C0
C0
C0
C0
C0
C0
C0
C0
ENDCHAR
STARTCHAR cent
ENCODING 162
SWIDTH 556 0
DWIDTH 10 0
BBX 7 13 2 -2
BITMAP
06
04
3E
76
E8
C8
C8
D0
F0
72
3E
20
20
ENDCHAR
STARTCHAR sterling
ENCODING 163
SWIDTH 556 0
DWIDTH 10 0
BBX 9 13 1 0
BITMAP
0F80
1F80
3800
3000
3000
3000
7E00
3000
3000
3000
3000
FF00
FF00
ENDCHAR
STARTCHAR currency
ENCODING 164
SWIDTH 556 0
DWIDTH 10 0
BBX 9 9 1 2
BITMAP
BE80
7700
C180
C180
C180
C180
C180
7700
BE80
ENDCHAR
STARTCHAR yen
ENCODING 165
SWIDTH 556 0
DWIDTH 10 0
BBX 10 13 0 0
BITMAP
C0C0
6180
6180
3300
3300
1E00
7F80
0C00
0C00
7F80
0C00
0C00
0C00
ENDCHAR
STARTCHAR brokenbar
ENCODING 166
SWIDTH 222 0
DWIDTH 4 0
BBX 1 15 1 -3
BITMAP
80
80
80
80
80
80
00
00
00
80
80
80
80
80
80
ENDCHAR
STARTCHAR section
ENCODING 167
SWIDTH 556 0
DWIDTH 10 0
BBX 7 15 2 -2
BITMAP
7C
EC
C0
C0
F0
FC
8E
86
E6
7C
1C
06
06
DC
F8
ENDCHAR
STARTCHAR dieresis
ENCODING 168
SWIDTH 278 0
DWIDTH 5 0
BBX 5 2 0 10
BITMAP
D8
D8
ENDCHAR
STARTCHAR copyright
ENCODING 169
SWIDTH 800 0
DWIDTH 14 0
BBX 12 13 1 0
BITMAP
0F00
30C0
6060
4FA0
98D0
9010
9010
9010
98D0
4FA0
6060
30C0
0F00
ENDCHAR
STARTCHAR ordfeminine
ENCODING 170
SWIDTH 361 0
DWIDTH 7 0
BBX 6 6 1 7
BITMAP
78
88
78
C8
88
7C
ENDCHAR
STARTCHAR guillemotleft
ENCODING 171
SWIDTH 556 0
DWIDTH 10 0
BBX 8 7 1 1
BITMAP
33
66
66
CC
66
66
33
ENDCHAR
STARTCHAR logicalnot
ENCODING 172
SWIDTH 600 0
DWIDTH 11 0
BBX 9 5 0 2
BITMAP
FF80
0080
0080
0080
0080
ENDCHAR
STARTCHAR hyphen.dup1
ENCODING 173
SWIDTH 333 0
DWIDTH 6 0
BBX 4 1 1 5
BITMAP
F0
ENDCHAR
STARTCHAR registered
ENCODING 174
SWIDTH 800 0
DWIDTH 14 0
BBX 12 13 1 0
BITMAP
0F00
30C0
6060
4FA0
8890
8890
8F90
8910
8910
48A0
6060
30C0
0F00
ENDCHAR
STARTCHAR macron
ENCODING 175
SWIDTH 278 0
DWIDTH 5 0
BBX 5 1 0 11
BITMAP
F8
ENDCHAR
STARTCHAR degree
ENCODING 176
SWIDTH 400 0
DWIDTH 7 0
BBX 5 5 1 8
BITMAP
70
D8
88
D8
70
ENDCHAR
STARTCHAR plusminus
ENCODING 177
SWIDTH 600 0
DWIDTH 11 0
BBX 9 9 1 0
BITMAP
0800
0800
0800
FF80
0800
0800
0800
0000
FF80
ENDCHAR
STARTCHAR twosuperior
ENCODING 178
SWIDTH 361 0
DWIDTH 7 0
BBX 6 8 0 5
BITMAP
70
98
08
08
10
20
C0
FC
ENDCHAR
STARTCHAR threesuperior
ENCODING 179
SWIDTH 361 0
DWIDTH 7 0
BBX 4 8 1 5
BITMAP
F0
90
10
60
10
10
90
F0
ENDCHAR
STARTCHAR acute
ENCODING 180
SWIDTH 278 0
DWIDTH 5 0
BBX 4 3 1 10
BITMAP
30
60
C0
ENDCHAR
STARTCHAR mu
ENCODING 181
SWIDTH 611 0
DWIDTH 11 0
BBX 8 13 1 -4
BITMAP
C3
C3
C3
C3
C3
C3
C3
EF
FB
C0
C0
C0
C0
ENDCHAR
STARTCHAR paragraph
ENCODING 182
SWIDTH 600 0
DWIDTH 11 0
BBX 9 15 0 -2
BITMAP
3F80
7880
F880
F880
F880
7880
3880
0880
0880
0880
0880
0880
0880
0880
0880
ENDCHAR
STARTCHAR periodcentered
ENCODING 183
SWIDTH 278 0
DWIDTH 5 0
BBX 2 2 1 5
BITMAP
C0
C0
ENDCHAR
STARTCHAR cedilla
ENCODING 184
SWIDTH 278 0
DWIDTH 5 0
BBX 4 4 1 -4
BITMAP
20
70
10
F0
ENDCHAR
STARTCHAR onesuperior
ENCODING 185
SWIDTH 361 0
DWIDTH 7 0
BBX 3 8 1 5
BITMAP
20
E0
20
20
20
20
20
20
ENDCHAR
STARTCHAR ordmasculine
ENCODING 186
SWIDTH 397 0
DWIDTH 7 0
BBX 6 6 0 7
BITMAP
78
CC
CC
CC
CC
78
ENDCHAR
STARTCHAR guillemotright
ENCODING 187
SWIDTH 556 0
DWIDTH 10 0
BBX 8 7 1 1
BITMAP
CC
66
66
33
66
66
CC
ENDCHAR
STARTCHAR onequarter
ENCODING 188
SWIDTH 834 0
DWIDTH 15 0
BBX 14 13 0 0
BITMAP
2030
E020
2060
2040
2080
2198
2138
2328
0248
04C8
0CFC
0808
1808
ENDCHAR
STARTCHAR onehalf
ENCODING 189
SWIDTH 834 0
DWIDTH 15 0
BBX 15 13 0 0
BITMAP
2060
E040
20C0
2080
2100
2338
224C
2604
0404
0808
1810
1060
307E
ENDCHAR
STARTCHAR threequarters
ENCODING 190
SWIDTH 834 0
DWIDTH 15 0
BBX 14 13 0 0
BITMAP
F030
8820
0860
7040
1880
0998
9938
F328
0248
04C8
0CFC
0808
1808
ENDCHAR
STARTCHAR questiondown
ENCODING 191
SWIDTH 500 0
DWIDTH 9 0
BBX 7 13 0 -4
BITMAP
18
18
00
00
18
18
30
60
60
C0
E0
7E
3E
ENDCHAR
STARTCHAR Agrave
ENCODING 192
SWIDTH 722 0
DWIDTH 13 0
BBX 13 17 0 0
BITMAP
0C00
0600
0200
0000
0600
0700
0500
0D80
0980
1880
18C0
10C0
3060
3FE0
6030
6030
C038
ENDCHAR
STARTCHAR Aacute
ENCODING 193
SWIDTH 722 0
DWIDTH 13 0
BBX 13 17 0 0
BITMAP
0180
0300
0600
0000
0600
0700
0500
0D80
0980
1880
18C0
10C0
3060
3FE0
6030
6030
C038
ENDCHAR
STARTCHAR Acircumflex
ENCODING 194
SWIDTH 722 0
DWIDTH 13 0
BBX 13 17 0 0
BITMAP
0300
0480
0840
0000
0600
0700
0500
0D80
0980
1880
18C0
10C0
3060
3FE0
6030
6030
C038
ENDCHAR
STARTCHAR Atilde
ENCODING 195
SWIDTH 722 0
DWIDTH 13 0
BBX 13 16 0 0
BITMAP
0C80
1300
0000
0600
0700
0500
0D80
0980
1880
18C0
10C0
3060
3FE0
6030
6030
C038
ENDCHAR
STARTCHAR Adieresis
ENCODING 196
SWIDTH 722 0
DWIDTH 13 0
BBX 13 16 0 0
BITMAP
0D80
0D80
0000
0600
0700
0500
0D80
0980
1880
18C0
10C0
3060
3FE0
6030
6030
C038
ENDCHAR
STARTCHAR Aring
ENCODING 197
SWIDTH 722 0
DWIDTH 13 0
BBX 13 18 0 0
BITMAP
0600
0900
0900
0600
0000
0600
0700
0500
0D80
0980
1880
18C0
10C0
3060
3FE0
6030
6030
C038
ENDCHAR
STARTCHAR AE
ENCODING 198
SWIDTH 944 0
DWIDTH 17 0
BBX 15 13 0 0
BITMAP
01FE
01FE
03E0
0660
0660
0C7E
087E
1860
3060
3FE0
6060
E07E
C07E
ENDCHAR
STARTCHAR Ccedilla
ENCODING 199
SWIDTH 611 0
DWIDTH 11 0
BBX 9 17 1 -4
BITMAP
0F80
3F80
7000
6000
C000
C000
C000
C000
C000
6000
7000
3F80
0F80
0400
0E00
0300
0E00
ENDCHAR
STARTCHAR Egrave
ENCODING 200
SWIDTH 556 0
DWIDTH 10 0
BBX 7 17 2 0
BITMAP
60
30
10
00
FE
FE
C0
C0
C0
FE
FE
C0
C0
C0
C0
FE
FE
ENDCHAR
STARTCHAR Eacute
ENCODING 201
SWIDTH 556 0
DWIDTH 10 0
BBX 7 17 2 0
BITMAP
0C
18
30
00
FE
FE
C0
C0
C0
FE
FE
C0
C0
C0
C0
FE
FE
ENDCHAR
STARTCHAR Ecircumflex
ENCODING 202
SWIDTH 556 0
DWIDTH 10 0
BBX 7 17 2 0
BITMAP
18
24
42
00
FE
FE
C0
C0
C0
FE
FE
C0
C0
C0
C0
FE
FE
ENDCHAR
STARTCHAR Edieresis
ENCODING 203
SWIDTH 556 0
DWIDTH 10 0
BBX 7 16 2 0
BITMAP
6C
6C
00
FE
FE
C0
C0
C0
FE
FE
C0
C0
C0
C0
FE
FE
ENDCHAR
STARTCHAR Igrave
ENCODING 204
SWIDTH 278 0
DWIDTH 5 0
BBX 4 17 0 0
BITMAP
C0
60
20
00
30
30
30
30
30
30
30
30
30
30
30
30
30
ENDCHAR
STARTCHAR Iacute
ENCODING 205
SWIDTH 278 0
DWIDTH 5 0
BBX 4 17 1 0
BITMAP
30
60
C0
00
60
60
60
60
60
60
60
60
60
60
60
60
60
ENDCHAR
STARTCHAR Icircumflex
ENCODING 206
SWIDTH 278 0
DWIDTH 5 0
BBX 6 17 0 0
BITMAP
30
48
84
00
30
30
30
30
30
30
30
30
30
30
30
30
30
ENDCHAR
STARTCHAR Idieresis
ENCODING 207
SWIDTH 278 0
DWIDTH 5 0
BBX 5 16 0 0
BITMAP
D8
D8
00
30
30
30
30
30
30
30
30
30
30
30
30
30
ENDCHAR
STARTCHAR Eth
ENCODING 208
SWIDTH 722 0
DWIDTH 13 0
BBX 12 13 1 0
BITMAP
7F00
7F80
60C0
6060
6060
FC60
6070
6060
6060
6060
60C0
7F80
7F00
ENDCHAR
STARTCHAR Ntilde
ENCODING 209
SWIDTH 722 0
DWIDTH 13 0
BBX 10 16 2 0
BITMAP
3200
4C00
0000
E0C0
E0C0
F0C0
D0C0
D8C0
C8C0
CCC0
C4C0
C6C0
C2C0
C3C0
C1C0
C1C0
ENDCHAR
STARTCHAR Ograve
ENCODING 210
SWIDTH 778 0
DWIDTH 14 0
BBX 12 17 1 0
BITMAP
0C00
0600
0200
0000
1F80
3FC0
7060
6070
C030
C030
C030
C030
C030
6070
7060
3FC0
1F80
ENDCHAR
STARTCHAR Oacute
ENCODING 211
SWIDTH 778 0
DWIDTH 14 0
BBX 12 17 1 0
BITMAP
0180
0300
0600
0000
1F80
3FC0
7060
6070
C030
C030
C030
C030
C030
6070
7060
3FC0
1F80
ENDCHAR
STARTCHAR Ocircumflex
ENCODING 212
SWIDTH 778 0
DWIDTH 14 0
BBX 12 17 1 0
BITMAP
0600
0900
1080
0000
1F80
3FC0
7060
6070
C030
C030
C030
C030
C030
6070
7060
3FC0
1F80
ENDCHAR
STARTCHAR Otilde
ENCODING 213
SWIDTH 778 0
DWIDTH 14 0
BBX 12 16 1 0
BITMAP
0C80
1300
0000
1F80
3FC0
7060
6070
C030
C030
C030
C030
C030
6070
7060
3FC0
1F80
ENDCHAR
STARTCHAR Odieresis
ENCODING 214
SWIDTH 778 0
DWIDTH 14 0
BBX 12 16 1 0
BITMAP
0D80
0D80
0000
1F80
3FC0
7060
6070
C030
C030
C030
C030
C030
6070
7060
3FC0
1F80
ENDCHAR
STARTCHAR multiply
ENCODING 215
SWIDTH 600 0
DWIDTH 11 0
BBX 8 8 1 1
BITMAP
42
C3
64
18
18
64
C3
42
ENDCHAR
STARTCHAR Oslash
ENCODING 216
SWIDTH 778 0
DWIDTH 14 0
BBX 12 13 1 0
BITMAP
1FA0
3FE0
7060
60F0
C130
C230
C230
C430
C830
7070
7060
3FC0
5F80
ENDCHAR
STARTCHAR Ugrave
ENCODING 217
SWIDTH 722 0
DWIDTH 13 0
BBX 10 17 2 0
BITMAP
3000
1800
0800
0000
C0C0
C0C0
C0C0
C0C0
C0C0
C0C0
C0C0
C0C0
C0C0
C0C0
6180
7F80
1E00
ENDCHAR
STARTCHAR Uacute
ENCODING 218
SWIDTH 722 0
DWIDTH 13 0
BBX 10 17 2 0
BITMAP
0600
0C00
1800
0000
C0C0
C0C0
C0C0
C0C0
C0C0
C0C0
C0C0
C0C0
C0C0
C0C0
6180
7F80
1E00
ENDCHAR
STARTCHAR Ucircumflex
ENCODING 219
SWIDTH 722 0
DWIDTH 13 0
BBX 10 17 2 0
BITMAP
0C00
1200
2100
0000
C0C0
C0C0
C0C0
C0C0
C0C0
C0C0
C0C0
C0C0
C0C0
C0C0
6180
7F80
1E00
ENDCHAR
STARTCHAR Udieresis
ENCODING 220
SWIDTH 722 0
DWIDTH 13 0
BBX 10 16 2 0
BITMAP
3600
3600
0000
C0C0
C0C0
C0C0
C0C0
C0C0
C0C0
C0C0
C0C0
C0C0
C0C0
6180
7F80
1E00
ENDCHAR
STARTCHAR Yacute
ENCODING 221
SWIDTH 667 0
DWIDTH 12 0
BBX 12 17 0 0
BITMAP
0180
0300
0600
0000
E070
6060
30C0
38C0
1980
0F00
0F00
0600
0600
0600
0600
0600
0600
ENDCHAR
STARTCHAR Thorn
ENCODING 222
SWIDTH 556 0
DWIDTH 10 0
BBX 8 13 2 0
BITMAP
C0
C0
FC
FE
C3
C3
C3
C3
FE
FC
C0
C0
C0
ENDCHAR
STARTCHAR germandbls
ENCODING 223
SWIDTH 611 0
DWIDTH 11 0
BBX 9 14 1 0
BITMAP
3C00
7700
E300
C300
C300
C300
CC00
C700
C380
C180
C180
C380
E700
DE00
ENDCHAR
STARTCHAR agrave
ENCODING 224
SWIDTH 556 0
DWIDTH 10 0
BBX 8 13 1 0
BITMAP
30
18
08
00
3E
67
03
03
7F
C3
C3
E7
7B
ENDCHAR
STARTCHAR aacute
ENCODING 225
SWIDTH 556 0
DWIDTH 10 0
BBX 8 13 1 0
BITMAP
06
0C
18
00
3E
67
03
03
7F
C3
C3
E7
7B
ENDCHAR
STARTCHAR acircumflex
ENCODING 226
SWIDTH 556 0
DWIDTH 10 0
BBX 8 13 1 0
BITMAP
0C
12
21
00
3E
67
03
03
7F
C3
C3
E7
7B
ENDCHAR
STARTCHAR atilde
ENCODING 227
SWIDTH 556 0
DWIDTH 10 0
BBX 8 13 1 0
BITMAP
32
4C
00
00
3E
67
03
03
7F
C3
C3
E7
7B
ENDCHAR
STARTCHAR adieresis
ENCODING 228
SWIDTH 556 0
DWIDTH 10 0
BBX 8 12 1 0
BITMAP
36
36
00
3E
67
03
03
7F
C3
C3
E7
7B
ENDCHAR
STARTCHAR aring
ENCODING 229
SWIDTH 556 0
DWIDTH 10 0
BBX 8 14 1 0
BITMAP
0C
12
12
0C
00
3E
67
03
03
7F
C3
C3
E7
7B
ENDCHAR
STARTCHAR ae
ENCODING 230
SWIDTH 889 0
DWIDTH 16 0
BBX 14 9 1 0
BITMAP
7CF0
4F9C
030C
030C
FFFC
C300
C380
EFC8
78F8
ENDCHAR
STARTCHAR ccedilla
ENCODING 231
SWIDTH 444 0
DWIDTH 8 0
BBX 7 13 1 -4
BITMAP
3E
72
E0
C0
C0
C0
E0
72
1E
10
1C
04
38
ENDCHAR
STARTCHAR egrave
ENCODING 232
SWIDTH 556 0
DWIDTH 10 0
BBX 9 13 1 0
BITMAP
3000
1800
0800
0000
3E00
7700
C300
C100
FF80
C000
E000
7300
3E00
ENDCHAR
STARTCHAR eacute
ENCODING 233
SWIDTH 556 0
DWIDTH 10 0
BBX 9 13 1 0
BITMAP
0600
0C00
1800
0000
3E00
7700
C300
C100
FF80
C000
E000
7300
3E00
ENDCHAR
STARTCHAR ecircumflex
ENCODING 234
SWIDTH 556 0
DWIDTH 10 0
BBX 9 13 1 0
BITMAP
0C00
1200
2100
0000
3E00
7700
C300
C100
FF80
C000
E000
7300
3E00
ENDCHAR
STARTCHAR edieresis
ENCODING 235
SWIDTH 556 0
DWIDTH 10 0
BBX 9 12 1 0
BITMAP
3600
3600
0000
3E00
7700
C300
C100
FF80
C000
E000
7300
3E00
ENDCHAR
STARTCHAR igrave
ENCODING 236
SWIDTH 278 0
DWIDTH 5 0
BBX 4 13 0 0
BITMAP
C0
60
20
00
30
30
30
30
30
30
30
30
30
ENDCHAR
STARTCHAR iacute
ENCODING 237
SWIDTH 278 0
DWIDTH 5 0
BBX 4 13 1 0
BITMAP
30
60
C0
00
60
60
60
60
60
60
60
60
60
ENDCHAR
STARTCHAR icircumflex
ENCODING 238
SWIDTH 278 0
DWIDTH 5 0
BBX 6 13 0 0
BITMAP
30
48
84
00
30
30
30
30
30
30
30
30
30
ENDCHAR
STARTCHAR idieresis
ENCODING 239
SWIDTH 278 0
DWIDTH 5 0
BBX 5 12 0 0
BITMAP
D8
D8
00
30
30
30
30
30
30
30
30
30
ENDCHAR
STARTCHAR eth
ENCODING 240
SWIDTH 611 0
DWIDTH 11 0
BBX 9 14 1 0
BITMAP
6200
3F00
3C00
6600
0300
3F80
7380
E180
C180
C080
C180
E180
7300
3E00
ENDCHAR
STARTCHAR ntilde
ENCODING 241
SWIDTH 611 0
DWIDTH 11 0
BBX 8 13 2 0
BITMAP
64
98
00
00
DE
F7
C3
C3
C3
C3
C3
C3
C3
ENDCHAR
STARTCHAR ograve
ENCODING 242
SWIDTH 611 0
DWIDTH 11 0
BBX 9 13 1 0
BITMAP
3000
1800
0800
0000
3E00
7300
E180
C180
C180
C180
E180
7300
3E00
ENDCHAR
STARTCHAR oacute
ENCODING 243
SWIDTH 611 0
DWIDTH 11 0
BBX 9 13 1 0
BITMAP
0600
0C00
1800
0000
3E00
7300
E180
C180
C180
C180
E180
7300
3E00
ENDCHAR
STARTCHAR ocircumflex
ENCODING 244
SWIDTH 611 0
DWIDTH 11 0
BBX 9 13 1 0
BITMAP
0C00
1200
2100
0000
3E00
7300
E180
C180
C180
C180
E180
7300
3E00
ENDCHAR
STARTCHAR otilde
ENCODING 245
SWIDTH 611 0
DWIDTH 11 0
BBX 9 13 1 0
BITMAP
3200
4C00
0000
0000
3E00
7300
E180
C180
C180
C180
E180
7300
3E00
ENDCHAR
STARTCHAR odieresis
ENCODING 246
SWIDTH 611 0
DWIDTH 11 0
BBX 9 12 1 0
BITMAP
3600
3600
0000
3E00
7300
E180
C180
C180
C180
E180
7300
3E00
ENDCHAR
STARTCHAR divide
ENCODING 247
SWIDTH 600 0
DWIDTH 11 0
BBX 9 9 1 0
BITMAP
1800
1C00
0800
0000
FF80
0000
0800
1C00
1800
ENDCHAR
STARTCHAR oslash
ENCODING 248
SWIDTH 611 0
DWIDTH 11 0
BBX 10 9 1 0
BITMAP
3E80
7300
E380
C480
C8C0
D180
E180
7300
DE00
ENDCHAR
STARTCHAR ugrave
ENCODING 249
SWIDTH 611 0
DWIDTH 11 0
BBX 8 13 2 0
BITMAP
60
30
10
00
C3
C3
C3
C3
C3
C3
C3
EF
7B
ENDCHAR
STARTCHAR uacute
ENCODING 250
SWIDTH 611 0
DWIDTH 11 0
BBX 8 13 2 0
BITMAP
0C
18
30
00
C3
C3
C3
C3
C3
C3
C3
EF
7B
ENDCHAR
STARTCHAR ucircumflex
ENCODING 251
SWIDTH 611 0
DWIDTH 11 0
BBX 8 13 2 0
BITMAP
18
24
42
00
C3
C3
C3
C3
C3
C3
C3
EF
7B
ENDCHAR
STARTCHAR udieresis
ENCODING 252
SWIDTH 611 0
DWIDTH 11 0
BBX 8 12 2 0
BITMAP
6C
6C
00
C3
C3
C3
C3
C3
C3
C3
EF
7B
ENDCHAR
STARTCHAR yacute
ENCODING 253
SWIDTH 500 0
DWIDTH 9 0
BBX 8 17 1 -4
BITMAP
0C
18
30
00
C3
C3
C2
66
66
24
3C
3C
18
18
10
B0
E0
ENDCHAR
STARTCHAR thorn
ENCODING 254
SWIDTH 611 0
DWIDTH 11 0
BBX 9 18 1 -4
BITMAP
C000
C000
C000
C000
C000
DE00
F700
E180
C180
C180
C180
E380
F700
DE00
C000
C000
C000
C000
ENDCHAR
STARTCHAR ydieresis
ENCODING 255
SWIDTH 500 0
DWIDTH 9 0
BBX 8 16 1 -4
BITMAP
6C
6C
00
C3
C3
C2
66
66
24
3C
3C
18
18
10
B0
E0
ENDCHAR
STARTCHAR .notdef
ENCODING -1
SWIDTH 500 0
DWIDTH 9 0
BBX 7 9 1 0
BITMAP
FE
82
82
82
82
82
82
82
FE
ENDCHAR
STARTCHAR quoteright
ENCODING -1
SWIDTH 278 0
DWIDTH 5 0
BBX 3 4 1 9
BITMAP
60
40
C0
C0
ENDCHAR
STARTCHAR quoteleft
ENCODING -1
SWIDTH 278 0
DWIDTH 5 0
BBX 4 4 0 9
BITMAP
30
60
60
E0
ENDCHAR
STARTCHAR fraction.dup2
ENCODING -1
SWIDTH 167 0
DWIDTH 3 0
BBX 9 13 -3 0
BITMAP
0080
0100
0300
0200
0600
0400
0800
1800
1000
2000
2000
4000
C000
ENDCHAR
STARTCHAR florin
ENCODING -1
SWIDTH 556 0
DWIDTH 10 0
BBX 8 17 1 -4
BITMAP
07
0F
0C
0C
0C
7F
18
18
18
18
10
30
30
30
30
E0
E0
ENDCHAR
STARTCHAR quotedblleft
ENCODING -1
SWIDTH 556 0
DWIDTH 10 0
BBX 7 4 1 9
BITMAP
36
6C
6C
FC
ENDCHAR
STARTCHAR guilsinglleft
ENCODING -1
SWIDTH 278 0
DWIDTH 5 0
BBX 4 7 1 1
BITMAP
30
60
60
C0
60
60
30
ENDCHAR
STARTCHAR guilsinglright
ENCODING -1
SWIDTH 278 0
DWIDTH 5 0
BBX 4 7 1 1
BITMAP
C0
60
60
30
60
60
C0
ENDCHAR
STARTCHAR fi
ENCODING -1
SWIDTH 667 0
DWIDTH 12 0
BBX 10 14 1 0
BITMAP
1E00
38C0
30C0
3000
3000
FCC0
30C0
30C0
30C0
30C0
30C0
30C0
30C0
30C0
ENDCHAR
STARTCHAR fl
ENCODING -1
SWIDTH 667 0
DWIDTH 12 0
BBX 10 14 1 0
BITMAP
1EC0
38C0
30C0
30C0
30C0
FCC0
30C0
30C0
30C0
30C0
30C0
30C0
30C0
30C0
ENDCHAR
STARTCHAR endash
ENCODING -1
SWIDTH 500 0
DWIDTH 9 0
BBX 9 1 0 4
BITMAP
FF80
ENDCHAR
STARTCHAR dagger
ENCODING -1
SWIDTH 556 0
DWIDTH 10 0
BBX 7 13 1 0
BITMAP
10
10
10
10
FE
10
10
10
10
10
10
10
10
ENDCHAR
STARTCHAR daggerdbl
ENCODING -1
SWIDTH 556 0
DWIDTH 10 0
BBX 7 13 1 0
BITMAP
10
10
10
FE
10
10
10
10
10
FE
10
10
10
ENDCHAR
STARTCHAR bullet
ENCODING -1
SWIDTH 500 0
DWIDTH 9 0
BBX 6 6 1 3
BITMAP
78
FC
FC
FC
FC
78
ENDCHAR
STARTCHAR quotesinglbase
ENCODING -1
SWIDTH 278 0
DWIDTH 5 0
BBX 3 4 1 -2
BITMAP
60
40
C0
C0
ENDCHAR
STARTCHAR quotedblbase
ENCODING -1
SWIDTH 556 0
DWIDTH 10 0
BBX 6 4 2 -2
BITMAP
6C
4C
C8
D8
ENDCHAR
STARTCHAR quotedblright
ENCODING -1
SWIDTH 556 0
DWIDTH 10 0
BBX 6 4 2 9
BITMAP
6C
48
D8
D8
ENDCHAR
STARTCHAR ellipsis
ENCODING -1
SWIDTH 1000 0
DWIDTH 18 0
BBX 14 2 2 0
BITMAP
C30C
C30C
ENDCHAR
STARTCHAR perthousand
ENCODING -1
SWIDTH 1000 0
DWIDTH 18 0
BBX 17 13 0 0
BITMAP
70C000
D88000
898000
890000
8A0000
DE0000
75C700
0F6D80
0A2880
122880
322880
236D80
61C700
ENDCHAR
STARTCHAR circumflex
ENCODING -1
SWIDTH 278 0
DWIDTH 5 0
BBX 6 3 0 10
BITMAP
30
48
84
ENDCHAR
STARTCHAR tilde
ENCODING -1
SWIDTH 278 0
DWIDTH 5 0
BBX 6 2 -1 11
BITMAP
64
98
ENDCHAR
STARTCHAR breve
ENCODING -1
SWIDTH 278 0
DWIDTH 5 0
BBX 6 2 0 11
BITMAP
84
78
ENDCHAR
STARTCHAR dotaccent
ENCODING -1
SWIDTH 278 0
DWIDTH 5 0
BBX 2 2 2 10
BITMAP
C0
C0
ENDCHAR
STARTCHAR ring
ENCODING -1
SWIDTH 278 0
DWIDTH 5 0
BBX 4 4 1 10
BITMAP
60
90
90
60
ENDCHAR
STARTCHAR hungarumlaut
ENCODING -1
SWIDTH 278 0
DWIDTH 5 0
BBX 7 3 -1 10
BITMAP
36
6C
D8
ENDCHAR
STARTCHAR ogonek
ENCODING -1
SWIDTH 278 0
DWIDTH 5 0
BBX 4 4 1 -4
BITMAP
60
C0
80
F0
ENDCHAR
STARTCHAR caron
ENCODING -1
SWIDTH 278 0
DWIDTH 5 0
BBX 6 3 0 10
BITMAP
84
48
30
ENDCHAR
STARTCHAR emdash
ENCODING -1
SWIDTH 1000 0
DWIDTH 18 0
BBX 18 1 0 4
BITMAP
FFFFC0
ENDCHAR
STARTCHAR OE
ENCODING -1
SWIDTH 944 0
DWIDTH 17 0
BBX 15 13 1 0
BITMAP
0FFE
3FFE
70C0
60C0
C0C0
C0FE
C0FE
C0C0
C0C0
60C0
70C0
3FFE
0FFE
ENDCHAR
STARTCHAR dotlessi
ENCODING -1
SWIDTH 278 0
DWIDTH 5 0
BBX 2 9 2 0
BITMAP
C0
C0
C0
C0
C0
C0
C0
C0
C0
ENDCHAR
STARTCHAR oe
ENCODING -1
SWIDTH 944 0
DWIDTH 17 0
BBX 15 9 1 0
BITMAP
3E78
77CE
C386
C186
C1FE
C180
C3C0
67E4
3E7C
ENDCHAR
STARTCHAR trademark
ENCODING -1
SWIDTH 990 0
DWIDTH 18 0
BBX 16 7 1 6
BITMAP
FDC7
21C7
21C7
21AB
21AB
21BB
2193
ENDCHAR
STARTCHAR Ydieresis
ENCODING -1
SWIDTH 667 0
DWIDTH 13 0
BBX 12 15 0 0
BITMAP
0D80
0000
E070
6060
30C0
38C0
1980
0F00
0F00
0600
0600
0600
0600
0600
0600
ENDCHAR
STARTCHAR Lslash
ENCODING -1
SWIDTH 500 0
DWIDTH 9 0
BBX 8 13 1 0
BITMAP
60
60
60
60
62
6C
78
60
E0
60
60
7F
7F
ENDCHAR
STARTCHAR lslash
ENCODING -1
SWIDTH 278 0
DWIDTH 5 0
BBX 4 14 1 0
BITMAP
60
60
60
60
70
70
60
E0
E0
60
60
60
60
60
ENDCHAR
STARTCHAR minus
ENCODING -1
SWIDTH 600 0
DWIDTH 11 0
BBX 9 1 1 4
BITMAP
FF80
ENDCHAR
STARTCHAR Scaron
ENCODING -1
SWIDTH 500 0
DWIDTH 9 0
BBX 7 17 1 0
BITMAP
42
24
18
00
3E
7E
C0
C0
E0
70
3C
0E
06
06
06
FE
F8
ENDCHAR
STARTCHAR scaron
ENCODING -1
SWIDTH 389 0
DWIDTH 7 0
BBX 6 13 1 0
BITMAP
84
48
30
00
78
C8
C0
E0
78
18
0C
98
F0
ENDCHAR
STARTCHAR Euro
ENCODING -1
SWIDTH 556 0
DWIDTH 10 0
BBX 11 13 0 0
BITMAP
03E0
0F60
1C00
1800
3000
7FC0
B000
7F80
B000
1800
1C00
0FC0
03E0
ENDCHAR
ENDFONT
